<svg width="363" height="108" viewBox="0 0 363 108" fill="none" xmlns="http://www.w3.org/2000/svg">
<path d="M25.5656 22.0048C25.5656 29.0655 19.8425 34.7893 12.7828 34.7893C5.72305 34.7893 0 29.0655 0 22.0048C0 14.9441 5.72305 9.22021 12.7828 9.22021C19.8425 9.22021 25.5656 14.9441 25.5656 22.0048Z" fill="#FF8200"/>
<path fill-rule="evenodd" clip-rule="evenodd" d="M45.1996 34.7893C37.8859 34.7893 31.957 29.0655 31.957 22.0048C31.957 14.9441 37.8859 9.22021 45.1996 9.22021H76.237C83.5507 9.22021 89.4796 14.9441 89.4796 22.0048C89.4796 29.0655 83.5507 34.7893 76.237 34.7893H45.1996Z" fill="#FF8200"/>
<path d="M55.5253 22.0048C55.5253 27.3003 51.233 31.5932 45.9382 31.5932C40.6434 31.5932 36.3511 27.3003 36.3511 22.0048C36.3511 16.7092 40.6434 12.4164 45.9382 12.4164C51.233 12.4164 55.5253 16.7092 55.5253 22.0048Z" fill="#F5F6F7"/>
<path fill-rule="evenodd" clip-rule="evenodd" d="M0.0185415 85.4789C0.0214001 92.7936 5.74677 98.7211 12.8065 98.7183C19.8663 98.7156 25.587 92.7836 25.5841 85.4689L25.572 54.4273C25.5691 47.1126 19.8438 41.1851 12.784 41.1879C5.72429 41.1906 0.00355185 47.1226 0.00641043 54.4373L0.0185415 85.4789Z" fill="#FF8200"/>
<path fill-rule="evenodd" clip-rule="evenodd" d="M63.9325 85.4789C63.9354 92.7936 69.6608 98.7211 76.7205 98.7183C83.7803 98.7156 89.501 92.7836 89.4981 85.4689L89.486 54.4273C89.4831 47.1126 83.7578 41.1851 76.698 41.1879C69.6383 41.1906 63.9175 47.1226 63.9204 54.4373L63.9325 85.4789Z" fill="#FF8200"/>
<path d="M57.5226 53.9662C57.5226 61.0269 51.7995 66.7507 44.7398 66.7507C37.68 66.7507 31.957 61.0269 31.957 53.9662C31.957 46.9054 37.68 41.1816 44.7398 41.1816C51.7995 41.1816 57.5226 46.9054 57.5226 53.9662Z" fill="#FF8200"/>
<path d="M57.5226 85.9275C57.5226 92.9883 51.7995 98.7121 44.7398 98.7121C37.68 98.7121 31.957 92.9883 31.957 85.9275C31.957 78.8668 37.68 73.143 44.7398 73.143C51.7995 73.143 57.5226 78.8668 57.5226 85.9275Z" fill="#FF8200"/>
<path d="M54.3269 85.9275C54.3269 91.2231 50.0346 95.516 44.7398 95.516C39.445 95.516 35.1527 91.2231 35.1527 85.9275C35.1527 80.632 39.445 76.3391 44.7398 76.3391C50.0346 76.3391 54.3269 80.632 54.3269 85.9275Z" fill="#F5F6F7"/>
<path d="M148.542 34.8418H126.34V49.0737H144.898C146.619 49.0737 147.896 49.4658 148.731 50.2502C149.592 51.0092 150.022 52.0339 150.022 53.3242C150.022 54.6146 149.592 55.6393 148.731 56.3983C147.871 57.1573 146.593 57.5368 144.898 57.5368H126.34V75.8674C126.34 78.1951 125.809 79.9282 124.746 81.0668C123.709 82.18 122.368 82.7367 120.723 82.7367C119.053 82.7367 117.687 82.1674 116.624 81.0288C115.587 79.8903 115.068 78.1698 115.068 75.8674V33.0581C115.068 31.4388 115.309 30.1232 115.789 29.1112C116.27 28.0738 117.017 27.3274 118.029 26.872C119.066 26.3913 120.382 26.1509 121.976 26.1509H148.542C150.338 26.1509 151.666 26.5558 152.527 27.3654C153.412 28.1497 153.855 29.1871 153.855 30.4774C153.855 31.7931 153.412 32.8557 152.527 33.6653C151.666 34.4497 150.338 34.8418 148.542 34.8418Z" fill="#25282A"/>
<path d="M164.29 75.8674V32.0334C164.29 29.7563 164.809 28.0485 165.846 26.91C166.883 25.7714 168.224 25.2021 169.869 25.2021C171.564 25.2021 172.93 25.7714 173.968 26.91C175.03 28.0232 175.562 29.731 175.562 32.0334V75.8674C175.562 78.1698 175.03 79.8903 173.968 81.0288C172.93 82.1674 171.564 82.7367 169.869 82.7367C168.25 82.7367 166.909 82.1674 165.846 81.0288C164.809 79.865 164.29 78.1445 164.29 75.8674Z" fill="#25282A"/>
<path d="M225.884 35.4491H213.588V75.8674C213.588 78.1951 213.069 79.9282 212.031 81.0668C210.994 82.18 209.653 82.7367 208.009 82.7367C206.339 82.7367 204.972 82.1674 203.91 81.0288C202.873 79.8903 202.354 78.1698 202.354 75.8674V35.4491H190.058C188.135 35.4491 186.705 35.0316 185.769 34.1967C184.833 33.3364 184.365 32.2105 184.365 30.819C184.365 29.3768 184.846 28.2383 185.807 27.4033C186.794 26.5684 188.211 26.1509 190.058 26.1509H225.884C227.832 26.1509 229.274 26.5811 230.21 27.4413C231.172 28.3015 231.652 29.4274 231.652 30.819C231.652 32.2105 231.172 33.3364 230.21 34.1967C229.249 35.0316 227.807 35.4491 225.884 35.4491Z" fill="#25282A"/>
<path d="M276.016 35.4491H263.72V75.8674C263.72 78.1951 263.201 79.9282 262.164 81.0668C261.127 82.18 259.786 82.7367 258.141 82.7367C256.471 82.7367 255.105 82.1674 254.042 81.0288C253.005 79.8903 252.486 78.1698 252.486 75.8674V35.4491H240.19C238.267 35.4491 236.838 35.0316 235.901 34.1967C234.965 33.3364 234.497 32.2105 234.497 30.819C234.497 29.3768 234.978 28.2383 235.939 27.4033C236.926 26.5684 238.343 26.1509 240.19 26.1509H276.016C277.964 26.1509 279.407 26.5811 280.343 27.4413C281.304 28.3015 281.785 29.4274 281.785 30.819C281.785 32.2105 281.304 33.3364 280.343 34.1967C279.381 35.0316 277.939 35.4491 276.016 35.4491Z" fill="#25282A"/>
<path d="M290.474 75.8674V32.0334C290.474 29.7563 290.993 28.0485 292.03 26.91C293.068 25.7714 294.409 25.2021 296.053 25.2021C297.748 25.2021 299.115 25.7714 300.152 26.91C301.215 28.0232 301.746 29.731 301.746 32.0334V75.8674C301.746 78.1698 301.215 79.8903 300.152 81.0288C299.115 82.1674 297.748 82.7367 296.053 82.7367C294.434 82.7367 293.093 82.1674 292.03 81.0288C290.993 79.865 290.474 78.1445 290.474 75.8674Z" fill="#25282A"/>
<path d="M330.625 31.9575L352.296 64.7476V31.6539C352.296 29.5033 352.751 27.8967 353.662 26.8341C354.598 25.7461 355.851 25.2021 357.419 25.2021C359.039 25.2021 360.316 25.7461 361.252 26.8341C362.188 27.8967 362.657 29.5033 362.657 31.6539V75.412C362.657 80.2951 360.632 82.7367 356.584 82.7367C355.572 82.7367 354.661 82.5848 353.852 82.2812C353.042 82.0029 352.283 81.5475 351.575 80.915C350.866 80.2825 350.208 79.5487 349.601 78.7138C348.994 77.8536 348.387 76.9807 347.78 76.0951L326.641 43.6845V76.2849C326.641 78.4102 326.147 80.0168 325.16 81.1047C324.174 82.1927 322.909 82.7367 321.365 82.7367C319.771 82.7367 318.494 82.1927 317.532 81.1047C316.571 79.9915 316.09 78.3849 316.09 76.2849V33.3617C316.09 31.5401 316.292 30.1105 316.697 29.0732C317.178 27.9347 317.975 27.0112 319.088 26.3027C320.201 25.569 321.403 25.2021 322.694 25.2021C323.706 25.2021 324.566 25.3666 325.274 25.6955C326.008 26.0244 326.641 26.4672 327.172 27.0238C327.729 27.5804 328.285 28.3015 328.842 29.1871C329.424 30.0726 330.018 30.9961 330.625 31.9575Z" fill="#25282A"/>
</svg>
